
<svg width="100" height="90" viewBox="0 0 100 90" fill="none" xmlns="http://www.w3.org/2000/svg">
<rect x="0.5" y="0.5" width="99" height="89" rx="5.5" fill="#212B36"/>
<path d="M19.5148 33.24C18.3468 33.24 17.3228 33.024 16.4428 32.592C15.5628 32.144 14.8748 31.528 14.3788 30.744C13.8988 29.944 13.6588 29.016 13.6588 27.96V20.52C13.6588 19.448 13.8988 18.52 14.3788 17.736C14.8748 16.952 15.5628 16.344 16.4428 15.912C17.3228 15.464 18.3468 15.24 19.5148 15.24C20.6988 15.24 21.7228 15.464 22.5868 15.912C23.4668 16.344 24.1468 16.952 24.6268 17.736C25.1228 18.52 25.3708 19.448 25.3708 20.52H21.7708C21.7708 19.816 21.5708 19.28 21.1708 18.912C20.7868 18.544 20.2348 18.36 19.5148 18.36C18.7948 18.36 18.2348 18.544 17.8348 18.912C17.4508 19.28 17.2588 19.816 17.2588 20.52V27.96C17.2588 28.648 17.4508 29.184 17.8348 29.568C18.2348 29.936 18.7948 30.12 19.5148 30.12C20.2348 30.12 20.7868 29.936 21.1708 29.568C21.5708 29.184 21.7708 28.648 21.7708 27.96V26.448H19.1788V23.4H25.3708V27.96C25.3708 29.016 25.1228 29.944 24.6268 30.744C24.1468 31.528 23.4668 32.144 22.5868 32.592C21.7228 33.024 20.6988 33.24 19.5148 33.24ZM33.9054 33.24C32.7374 33.24 31.7134 33.024 30.8334 32.592C29.9534 32.144 29.2654 31.528 28.7694 30.744C28.2894 29.944 28.0494 29.016 28.0494 27.96V20.52C28.0494 19.448 28.2894 18.52 28.7694 17.736C29.2654 16.952 29.9534 16.344 30.8334 15.912C31.7134 15.464 32.7374 15.24 33.9054 15.24C35.0894 15.24 36.1134 15.464 36.9774 15.912C37.8574 16.344 38.5374 16.952 39.0174 17.736C39.5134 18.52 39.7614 19.448 39.7614 20.52H36.1614C36.1614 19.816 35.9614 19.28 35.5614 18.912C35.1774 18.544 34.6254 18.36 33.9054 18.36C33.1854 18.36 32.6254 18.544 32.2254 18.912C31.8414 19.28 31.6494 19.816 31.6494 20.52V27.96C31.6494 28.648 31.8414 29.184 32.2254 29.568C32.6254 29.936 33.1854 30.12 33.9054 30.12C34.6254 30.12 35.1774 29.936 35.5614 29.568C35.9614 29.184 36.1614 28.648 36.1614 27.96V26.448H33.5694V23.4H39.7614V27.96C39.7614 29.016 39.5134 29.944 39.0174 30.744C38.5374 31.528 37.8574 32.144 36.9774 32.592C36.1134 33.024 35.0894 33.24 33.9054 33.24Z" fill="white"/>
<rect x="0.5" y="0.5" width="99" height="89" rx="5.5" stroke="#48515B"/>
</svg>
